<svg xmlns="http://www.w3.org/2000/svg" xmlns:xlink="http://www.w3.org/1999/xlink" width="2400" height="268" viewBox="0 0 2400 268">
  <defs>
    <g id="archive"><svg viewBox="0 0 24 24"><polyline points="21 8 21 21 3 21 3 8"/><rect x="1" y="3" width="22" height="5"/><line x1="10" y1="12" x2="14" y2="12"/></svg></g>
    <g id="arrow-down"><svg viewBox="0 0 24 24"><line x1="12" y1="5" x2="12" y2="19"/><polyline points="19 12 12 19 5 12"/></svg></g>
    <g id="arrow-left"><svg viewBox="0 0 24 24"><line x1="19" y1="12" x2="5" y2="12"/><polyline points="12 19 5 12 12 5"/></svg></g>
    <g id="arrow-right"><svg viewBox="0 0 24 24"><line x1="5" y1="12" x2="19" y2="12"/><polyline points="12 5 19 12 12 19"/></svg></g>
    <g id="arrow-up"><svg viewBox="0 0 24 24"><line x1="12" y1="19" x2="12" y2="5"/><polyline points="5 12 12 19 5 12"/></svg></g>
    <g id="at-sign"><svg viewBox="0 0 24 24"><circle cx="12" cy="12" r="4"/><path d="M16 12v1.5a2.5 2.5 0 0 0 5 0V12a9 9 0 1 0-5.5 8.3"/></svg></g>
    <g id="bar-chart"><svg viewBox="0 0 24 24"><line x1="12" y1="20" x2="12" y2="10"/><line x1="18" y1="20" x2="18" y2="4"/><line x1="6" y1="20" x2="6" y2="16"/></svg></g>
    <g id="bell"><svg viewBox="0 0 24 24"><path d="M18 8A6 6 0 0 0 6 8c0 7-3 9-3 9h18s-3-2-3-9"/><path d="M13.73 21a2 2 0 0 1-3.46 0"/></svg></g>
    <g id="bookmark"><svg viewBox="0 0 24 24"><polyline points="19 21 12 17 5 21 5 3 19 3 19 21"/></svg></g>
    <g id="box"><svg viewBox="0 0 24 24"><path d="M21 16V8a2 2 0 0 0-1-1.73l-7-4a2 2 0 0 0-2 0l-7 4A2 2 0 0 0 3 8v8a2 2 0 0 0 1 1.73l7 4a2 2 0 0 0 2 0l7-4A2 2 0 0 0 21 16z"/><polyline points="3.27 6.96 12 12.01 20.73 6.96"/><line x1="12" y1="22.08" x2="12" y2="12"/></svg></g>
    <g id="briefcase"><svg viewBox="0 0 24 24"><rect x="2" y="7" width="20" height="14" rx="2"/><path d="M16 21V5a2 2 0 0 0-2-2h-4a2 2 0 0 0-2 2v16"/></svg></g>
    <g id="calendar"><svg viewBox="0 0 24 24"><rect x="3" y="4" width="18" height="18" rx="2" ry="2"/><line x1="16" y1="2" x2="16" y2="6"/><line x1="8" y1="2" x2="8" y2="6"/><line x1="3" y1="10" x2="21" y2="10"/></svg></g>
    <g id="camera"><svg viewBox="0 0 24 24"><path d="M23 19a2 2 0 0 1-2 2H3a2 2 0 0 1-2-2V8a2 2 0 0 1 2-2h4l2-3h6l2 3h4a2 2 0 0 1 2 2z"/><circle cx="12" cy="13" r="4"/></svg></g>
    <g id="check"><svg viewBox="0 0 24 24"><polyline points="20 6 9 17 4 12"/></svg></g>
    <g id="check-circle"><svg viewBox="0 0 24 24"><path d="M22 11.08V12a10 10 0 1 1-5.93-9.14"/><polyline points="22 4 12 14.01 9 11.01"/></svg></g>
    <g id="chevron-down"><svg viewBox="0 0 24 24"><polyline points="6 9 12 15 18 9"/></svg></g>
    <g id="chevron-left"><svg viewBox="0 0 24 24"><polyline points="15 18 9 12 15 6"/></svg></g>
    <g id="chevron-right"><svg viewBox="0 0 24 24"><polyline points="9 18 15 12 9 6"/></svg></g>
    <g id="chevron-up"><svg viewBox="0 0 24 24"><polyline points="18 15 12 9 6 15"/></svg></g>
    <g id="circle"><svg viewBox="0 0 24 24"><circle cx="12" cy="12" r="10"/></svg></g>
    <g id="clipboard"><svg viewBox="0 0 24 24"><path d="M16 4h2a2 2 0 0 1 2 2v14a2 2 0 0 1-2 2H6a2 2 0 0 1-2-2V6a2 2 0 0 1 2-2h2"/><rect x="8" y="2" width="8" height="4" rx="1" ry="1"/></svg></g>
    <g id="clock"><svg viewBox="0 0 24 24"><circle cx="12" cy="12" r="10"/><polyline points="12 6 12 12 16 14"/></svg></g>
    <g id="cloud"><svg viewBox="0 0 24 24"><path d="M17.5 19H9a7 7 0 1 1 6.71-9h1.79a4.5 4.5 0 1 1 0 9z"/></svg></g>
    <g id="code"><svg viewBox="0 0 24 24"><polyline points="16 18 22 12 16 6"/><polyline points="8 6 2 12 8 18"/></svg></g>
    <g id="copy"><svg viewBox="0 0 24 24"><rect x="9" y="9" width="13" height="13" rx="2" ry="2"/><path d="M5 15H4a2 2 0 0 1-2-2V4a2 2 0 0 1 2-2h9a2 2 0 0 1 2 2v1"/></svg></g>
    <g id="credit-card"><svg viewBox="0 0 24 24"><rect x="1" y="4" width="22" height="16" rx="2"/><line x1="1" y1="10" x2="23" y2="10"/></svg></g>
    <g id="delete"><svg viewBox="0 0 24 24"><polyline points="3 6 5 6 21 6"/><path d="M19 6v14a2 2 0 0 1-2 2H7a2 2 0 0 1-2-2V6m3 0V4a2 2 0 0 1 2-2h4a2 2 0 0 1 2 2v2"/></svg></g>
    <g id="download"><svg viewBox="0 0 24 24"><path d="M21 15v4a2 2 0 0 1-2 2H5a2 2 0 0 1-2-2v-4"/><polyline points="7 10 12 15 17 10"/><line x1="12" y1="15" x2="12" y2="3"/></svg></g>
    <g id="edit"><svg viewBox="0 0 24 24"><path d="M11 4H4a2 2 0 0 0-2 2v14a2 2 0 0 0 2 2h14a2 2 0 0 0 2-2v-7"/><path d="M18.5 2.5a2.121 2.121 0 0 1 3 3L12 15l-4 1 1-4 9.5-9.5z"/></svg></g>
    <g id="external-link"><svg viewBox="0 0 24 24"><path d="M18 13v6a2 2 0 0 1-2 2H5a2 2 0 0 1-2-2V8a2 2 0 0 1 2-2h6"/><polyline points="15 3 21 3 21 9"/><line x1="10" y1="14" x2="21" y2="3"/></svg></g>
    <g id="eye"><svg viewBox="0 0 24 24"><path d="M1 12s4-8 11-8 11 8 11 8-4 8-11 8-11-8-11-8z"/><circle cx="12" cy="12" r="3"/></svg></g>
    <g id="file"><svg viewBox="0 0 24 24"><path d="M13 2H6a2 2 0 0 0-2 2v16a2 2 0 0 0 2 2h12a2 2 0 0 0 2-2V9z"/><polyline points="13 2 13 9 20 9"/></svg></g>
    <g id="file-text"><svg viewBox="0 0 24 24"><path d="M14 2H6a2 2 0 0 0-2 2v16a2 2 0 0 0 2 2h12a2 2 0 0 0 2-2V8z"/><polyline points="14 2 14 8 20 8"/><line x1="16" y1="13" x2="8" y2="13"/><line x1="16" y1="17" x2="8" y2="17"/></svg></g>
    <g id="filter"><svg viewBox="0 0 24 24"><polygon points="22 3 2 3 10 12.46 10 19 14 21 14 12.46 22 3"/></svg></g>
    <g id="flag"><svg viewBox="0 0 24 24"><path d="M4 15s1-1 4-1 5 2 8 2 4-1 4-1V3s-1 1-4 1-5-2-8-2-4 1-4 1z"/><line x1="4" y1="22" x2="4" y2="15"/></svg></g>
    <g id="folder"><svg viewBox="0 0 24 24"><path d="M22 19a2 2 0 0 1-2 2H4a2 2 0 0 1-2-2V5a2 2 0 0 1 2-2h5l2 3h9a2 2 0 0 1 2 2z"/></svg></g>
    <g id="gift"><svg viewBox="0 0 24 24"><polyline points="20 12 20 22 4 22 4 12"/><rect x="2" y="7" width="20" height="5"/><line x1="12" y1="22" x2="12" y2="7"/><path d="M12 7H7.5a2.5 2.5 0 0 1 0-5C11 2 12 7 12 7z"/><path d="M12 7h4.5a2.5 2.5 0 0 0 0-5C13 2 12 7 12 7z"/></svg></g>
    <g id="globe"><svg viewBox="0 0 24 24"><circle cx="12" cy="12" r="10"/><line x1="2" y1="12" x2="22" y2="12"/><path d="M12 2a15.3 15.3 0 0 1 4 10 15.3 15.3 0 0 1-4 10 15.3 15.3 0 0 1-4-10 15.3 15.3 0 0 1 4-10z"/></svg></g>
    <g id="grid"><svg viewBox="0 0 24 24"><rect x="3" y="3" width="7" height="7"/><rect x="14" y="3" width="7" height="7"/><rect x="3" y="14" width="7" height="7"/><rect x="14" y="14" width="7" height="7"/></svg></g>
    <g id="hash"><svg viewBox="0 0 24 24"><line x1="4" y1="9" x2="20" y2="9"/><line x1="4" y1="15" x2="20" y2="15"/><line x1="10" y1="3" x2="8" y2="21"/><line x1="16" y1="3" x2="14" y2="21"/></svg></g>
    <g id="heart"><svg viewBox="0 0 24 24"><path d="M20.84 4.61a5.5 5.5 0 0 0-7.78 0L12 5.67l-1.06-1.06a5.5 5.5 0 0 0-7.78 7.78l1.06 1.06L12 21.23l7.78-7.78 1.06-1.06a5.5 5.5 0 0 0 0-7.78z"/></svg></g>
    <g id="help-circle"><svg viewBox="0 0 24 24"><circle cx="12" cy="12" r="10"/><path d="M9.09 9a3 3 0 0 1 5.83 1c0 2-3 3-3 3"/><line x1="12" y1="17" x2="12.01" y2="17"/></svg></g>
    <g id="home"><svg viewBox="0 0 24 24"><path d="M3 9l9-7 9 7v11a2 2 0 0 1-2 2H5a2 2 0 0 1-2-2z"/><polyline points="9 22 9 12 15 12 15 22"/></svg></g>
    <g id="image"><svg viewBox="0 0 24 24"><rect x="3" y="3" width="18" height="18" rx="2" ry="2"/><circle cx="8.5" cy="8.5" r="1.5"/><polyline points="21 15 16 10 5 21"/></svg></g>
    <g id="info"><svg viewBox="0 0 24 24"><circle cx="12" cy="12" r="10"/><line x1="12" y1="16" x2="12" y2="12"/><line x1="12" y1="8" x2="12.01" y2="8"/></svg></g>
    <g id="key"><svg viewBox="0 0 24 24"><path d="M21 2l-2 2m-7.61 7.61a5.5 5.5 0 1 1-7.78 7.78 5.5 5.5 0 0 1 7.78-7.78zm0 0L15.5 7.5m0 0l3 3L22 7l-3-3m-3.5 3.5L19 4"/></svg></g>
    <g id="layers"><svg viewBox="0 0 24 24"><polygon points="12 2 2 7 12 12 22 7 12 2"/><polyline points="2 17 12 22 22 17"/><polyline points="2 12 12 17 22 12"/></svg></g>
    <g id="layout"><svg viewBox="0 0 24 24"><rect x="3" y="3" width="18" height="18" rx="2"/><line x1="3" y1="9" x2="21" y2="9"/><line x1="9" y1="21" x2="9" y2="9"/></svg></g>
    <g id="link"><svg viewBox="0 0 24 24"><path d="M10 13a5 5 0 0 0 7.54.54l3-3a5 5 0 0 0-7.07-7.07l-1.72 1.71"/><path d="M14 11a5 5 0 0 0-7.54-.54l-3 3a5 5 0 0 0 7.07 7.07l1.71-1.71"/></svg></g>
    <g id="list"><svg viewBox="0 0 24 24"><line x1="8" y1="6" x2="21" y2="6"/><line x1="8" y1="12" x2="21" y2="12"/><line x1="8" y1="18" x2="21" y2="18"/><line x1="3" y1="6" x2="3.01" y2="6"/><line x1="3" y1="12" x2="3.01" y2="12"/><line x1="3" y1="18" x2="3.01" y2="18"/></svg></g>
    <g id="lock"><svg viewBox="0 0 24 24"><rect x="3" y="11" width="18" height="11" rx="2" ry="2"/><path d="M7 11V7a5 5 0 0 1 10 0v4"/></svg></g>
    <g id="mail"><svg viewBox="0 0 24 24"><path d="M4 4h16c1.1 0 2 .9 2 2v12c0 1.1-.9 2-2 2H4c-1.1 0-2-.9-2-2V6c0-1.1.9-2 2-2z"/><polyline points="22 6 12 13 2 6"/></svg></g>
    <g id="map-pin"><svg viewBox="0 0 24 24"><path d="M21 10c0 7-9 13-9 13s-9-6-9-13a9 9 0 0 1 18 0z"/><circle cx="12" cy="10" r="3"/></svg></g>
    <g id="maximize"><svg viewBox="0 0 24 24"><path d="M8 3H5a2 2 0 0 0-2 2v3m18 0V5a2 2 0 0 0-2-2h-3m0 18h3a2 2 0 0 0 2-2v-3M3 16v3a2 2 0 0 0 2 2h3"/></svg></g>
    <g id="menu"><svg viewBox="0 0 24 24"><line x1="3" y1="12" x2="21" y2="12"/><line x1="3" y1="6" x2="21" y2="6"/><line x1="3" y1="18" x2="21" y2="18"/></svg></g>
    <g id="mic"><svg viewBox="0 0 24 24"><path d="M12 1a3 3 0 0 0-3 3v8a3 3 0 0 0 6 0V4a3 3 0 0 0-3-3z"/><path d="M19 10v2a7 7 0 0 1-14 0v-2"/><line x1="12" y1="19" x2="12" y2="23"/><line x1="8" y1="23" x2="16" y2="23"/></svg></g>
    <g id="minimize"><svg viewBox="0 0 24 24"><path d="M8 3v3a2 2 0 0 1-2 2H3m18 0h-3a2 2 0 0 1-2-2V3m0 18v-3a2 2 0 0 1 2-2h3M3 16h3a2 2 0 0 1 2 2v3"/></svg></g>
    <g id="minus"><svg viewBox="0 0 24 24"><line x1="5" y1="12" x2="19" y2="12"/></svg></g>
    <g id="monitor"><svg viewBox="0 0 24 24"><rect x="2" y="3" width="20" height="14" rx="2"/><line x1="8" y1="21" x2="16" y2="21"/><line x1="12" y1="17" x2="12" y2="21"/></svg></g>
    <g id="moon"><svg viewBox="0 0 24 24"><path d="M21 12.79A9 9 0 1 1 11.21 3 7 7 0 0 0 21 12.79z"/></svg></g>
    <g id="more-horizontal"><svg viewBox="0 0 24 24"><circle cx="12" cy="12" r="1"/><circle cx="19" cy="12" r="1"/><circle cx="5" cy="12" r="1"/></svg></g>
    <g id="more-vertical"><svg viewBox="0 0 24 24"><circle cx="12" cy="12" r="1"/><circle cx="12" cy="5" r="1"/><circle cx="12" cy="19" r="1"/></svg></g>
    <g id="move"><svg viewBox="0 0 24 24"><polyline points="5 9 2 12 5 15"/><polyline points="9 5 12 2 15 5"/><polyline points="15 19 12 22 9 19"/><polyline points="19 9 22 12 19 15"/><line x1="2" y1="12" x2="22" y2="12"/><line x1="12" y1="2" x2="12" y2="22"/></svg></g>
    <g id="music"><svg viewBox="0 0 24 24"><path d="M9 18V5l12-2v13"/><circle cx="6" cy="18" r="3"/><circle cx="18" cy="16" r="3"/></svg></g>
    <g id="package"><svg viewBox="0 0 24 24"><path d="M16.5 9.4L7.55 4.24"/><path d="M21 16V8a2 2 0 0 0-1-1.73l-7-4a2 2 0 0 0-2 0l-7 4A2 2 0 0 0 3 8v8a2 2 0 0 0 1 1.73l7 4a2 2 0 0 0 2 0l7-4A2 2 0 0 0 21 16z"/><polyline points="3.27 6.96 12 12.01 20.73 6.96"/><line x1="12" y1="22.08" x2="12" y2="12"/></svg></g>
    <g id="paperclip"><svg viewBox="0 0 24 24"><path d="M21.44 11.05l-9.19 9.19a6 6 0 0 1-8.49-8.49l9.19-9.19a4 4 0 0 1 5.66 5.66l-9.2 9.19a2 2 0 0 1-2.83-2.83l8.49-8.48"/></svg></g>
    <g id="pause"><svg viewBox="0 0 24 24"><rect x="6" y="4" width="4" height="16"/><rect x="14" y="4" width="4" height="16"/></svg></g>
    <g id="phone"><svg viewBox="0 0 24 24"><path d="M22 16.92v3a2 2 0 0 1-2.18 2 19.79 19.79 0 0 1-8.63-3.07 19.5 19.5 0 0 1-6-6 19.79 19.79 0 0 1-3.07-8.67A2 2 0 0 1 4.11 2h3a2 2 0 0 1 2 1.72 12.84 12.84 0 0 0 .7 2.81 2 2 0 0 1-.45 2.11L8.09 9.91a16 16 0 0 0 6 6l1.27-1.27a2 2 0 0 1 2.11-.45 12.84 12.84 0 0 0 2.81.7A2 2 0 0 1 22 16.92z"/></svg></g>
    <g id="play"><svg viewBox="0 0 24 24"><polygon points="5 3 19 12 5 21 5 3"/></svg></g>
    <g id="plus"><svg viewBox="0 0 24 24"><line x1="12" y1="5" x2="12" y2="19"/><line x1="5" y1="12" x2="19" y2="12"/></svg></g>
    <g id="power"><svg viewBox="0 0 24 24"><path d="M18.36 6.64a9 9 0 1 1-12.73 0"/><line x1="12" y1="2" x2="12" y2="12"/></svg></g>
    <g id="search"><svg viewBox="0 0 24 24"><circle cx="11" cy="11" r="8"/><line x1="21" y1="21" x2="16.65" y2="16.65"/></svg></g>
    <g id="send"><svg viewBox="0 0 24 24"><line x1="22" y1="2" x2="11" y2="13"/><polygon points="22 2 15 22 11 13 2 9 22 2"/></svg></g>
    <g id="server"><svg viewBox="0 0 24 24"><rect x="2" y="2" width="20" height="8" rx="2" ry="2"/><rect x="2" y="14" width="20" height="8" rx="2" ry="2"/><line x1="6" y1="6" x2="6.01" y2="6"/><line x1="6" y1="18" x2="6.01" y2="18"/></svg></g>
    <g id="settings"><svg viewBox="0 0 24 24"><circle cx="12" cy="12" r="3"/><path d="M19.4 15a1.65 1.65 0 0 0 .33 1.82l.06.06a2 2 0 0 1 0 2.83 2 2 0 0 1-2.83 0l-.06-.06a1.65 1.65 0 0 0-1.82-.33 1.65 1.65 0 0 0-1 1.51V21a2 2 0 0 1-2 2 2 2 0 0 1-2-2v-.09A1.65 1.65 0 0 0 9 19.4a1.65 1.65 0 0 0-1.82.33l-.06.06a2 2 0 0 1-2.83 0 2 2 0 0 1 0-2.83l.06-.06A1.65 1.65 0 0 0 4.68 15a1.65 1.65 0 0 0-1.51-1H3a2 2 0 0 1-2-2 2 2 0 0 1 2-2h.09A1.65 1.65 0 0 0 4.6 9a1.65 1.65 0 0 0-.33-1.82l-.06-.06a2 2 0 0 1 0-2.83 2 2 0 0 1 2.83 0l.06.06A1.65 1.65 0 0 0 9 4.68a1.65 1.65 0 0 0 1-1.51V3a2 2 0 0 1 2-2 2 2 0 0 1 2 2v.09a1.65 1.65 0 0 0 1 1.51 1.65 1.65 0 0 0 1.82-.33l.06-.06a2 2 0 0 1 2.83 0 2 2 0 0 1 0 2.83l-.06.06A1.65 1.65 0 0 0 19.4 9a1.65 1.65 0 0 0 1.51 1H21a2 2 0 0 1 2 2 2 2 0 0 1-2 2h-.09a1.65 1.65 0 0 0-1.51 1z"/></svg></g>
    <g id="share"><svg viewBox="0 0 24 24"><path d="M4 12v8a2 2 0 0 0 2 2h12a2 2 0 0 0 2-2v-8"/><polyline points="16 6 12 2 8 6"/><line x1="12" y1="2" x2="12" y2="15"/></svg></g>
    <g id="shield"><svg viewBox="0 0 24 24"><path d="M12 22s8-4 8-10V5l-8-3-8 3v7c0 6 8 10 8 10z"/></svg></g>
    <g id="shopping-cart"><svg viewBox="0 0 24 24"><circle cx="9" cy="21" r="1"/><circle cx="20" cy="21" r="1"/><path d="M1 1h4l2.68 13.39a2 2 0 0 0 2 1.61h9.72a2 2 0 0 0 2-1.61L23 6H6"/></svg></g>
    <g id="sidebar"><svg viewBox="0 0 24 24"><rect x="3" y="3" width="18" height="18" rx="2" ry="2"/><line x1="9" y1="3" x2="9" y2="21"/></svg></g>
    <g id="sliders"><svg viewBox="0 0 24 24"><line x1="4" y1="21" x2="4" y2="14"/><line x1="4" y1="10" x2="4" y2="3"/><line x1="12" y1="21" x2="12" y2="12"/><line x1="12" y1="8" x2="12" y2="3"/><line x1="20" y1="21" x2="20" y2="16"/><line x1="20" y1="12" x2="20" y2="3"/><line x1="1" y1="14" x2="7" y2="14"/><line x1="9" y1="8" x2="15" y2="8"/><line x1="17" y1="16" x2="23" y2="16"/></svg></g>
    <g id="smile"><svg viewBox="0 0 24 24"><circle cx="12" cy="12" r="10"/><path d="M8 14s1.5 2 4 2 4-2 4-2"/><line x1="9" y1="9" x2="9.01" y2="9"/><line x1="15" y1="9" x2="15.01" y2="9"/></svg></g>
    <g id="speaker"><svg viewBox="0 0 24 24"><rect x="4" y="2" width="16" height="20" rx="2"/><circle cx="12" cy="14" r="4"/><line x1="12" y1="6" x2="12.01" y2="6"/></svg></g>
    <g id="star"><svg viewBox="0 0 24 24"><polygon points="12 2 15.09 8.26 22 9.27 17 14.14 18.18 21.02 12 17.77 5.82 21.02 7 14.14 2 9.27 8.91 8.26 12 2"/></svg></g>
    <g id="sun"><svg viewBox="0 0 24 24"><circle cx="12" cy="12" r="5"/><line x1="12" y1="1" x2="12" y2="3"/><line x1="12" y1="21" x2="12" y2="23"/><line x1="4.22" y1="4.22" x2="5.64" y2="5.64"/><line x1="18.36" y1="18.36" x2="19.78" y2="19.78"/><line x1="1" y1="12" x2="3" y2="12"/><line x1="21" y1="12" x2="23" y2="12"/><line x1="4.22" y1="19.78" x2="5.64" y2="18.36"/><line x1="18.36" y1="5.64" x2="19.78" y2="4.22"/></svg></g>
    <g id="table"><svg viewBox="0 0 24 24"><rect x="3" y="3" width="18" height="18" rx="2"/><line x1="3" y1="9" x2="21" y2="9"/><line x1="3" y1="15" x2="21" y2="15"/><line x1="9" y1="3" x2="9" y2="21"/><line x1="15" y1="3" x2="15" y2="21"/></svg></g>
    <g id="tag"><svg viewBox="0 0 24 24"><path d="M20.59 13.41l-7.17 7.17a2 2 0 0 1-2.83 0L2 12V2h10l8.59 8.59a2 2 0 0 1 0 2.82z"/><line x1="7" y1="7" x2="7.01" y2="7"/></svg></g>
    <g id="terminal"><svg viewBox="0 0 24 24"><polyline points="4 17 10 11 4 5"/><line x1="12" y1="19" x2="20" y2="19"/></svg></g>
    <g id="trash"><svg viewBox="0 0 24 24"><polyline points="3 6 5 6 21 6"/><path d="M19 6v14a2 2 0 0 1-2 2H7a2 2 0 0 1-2-2V6m3 0V4a2 2 0 0 1 2-2h4a2 2 0 0 1 2 2v2"/></svg></g>
    <g id="trending-up"><svg viewBox="0 0 24 24"><polyline points="23 6 13.5 15.5 8.5 10.5 1 18"/><polyline points="17 6 23 6 23 12"/></svg></g>
    <g id="unlock"><svg viewBox="0 0 24 24"><rect x="3" y="11" width="18" height="11" rx="2" ry="2"/><path d="M7 11V7a5 5 0 0 1 9.9-1"/></svg></g>
    <g id="upload"><svg viewBox="0 0 24 24"><path d="M21 15v4a2 2 0 0 1-2 2H5a2 2 0 0 1-2-2v-4"/><polyline points="17 8 12 3 7 8"/><line x1="12" y1="3" x2="12" y2="15"/></svg></g>
    <g id="user"><svg viewBox="0 0 24 24"><path d="M20 21v-2a4 4 0 0 0-4-4H8a4 4 0 0 0-4 4v2"/><circle cx="12" cy="7" r="4"/></svg></g>
    <g id="users"><svg viewBox="0 0 24 24"><path d="M17 21v-2a4 4 0 0 0-4-4H5a4 4 0 0 0-4 4v2"/><circle cx="9" cy="7" r="4"/><path d="M23 21v-2a4 4 0 0 0-3-3.87"/><path d="M16 3.13a4 4 0 0 1 0 7.75"/></svg></g>
    <g id="video"><svg viewBox="0 0 24 24"><polygon points="23 7 16 12 23 17 23 7"/><rect x="1" y="5" width="15" height="14" rx="2"/></svg></g>
    <g id="volume"><svg viewBox="0 0 24 24"><polygon points="11 5 6 9 2 9 2 15 6 15 11 19 11 5"/><path d="M19.07 4.93a10 10 0 0 1 0 14.14M15.54 8.46a5 5 0 0 1 0 7.07"/></svg></g>
    <g id="wifi"><svg viewBox="0 0 24 24"><path d="M5 12.55a11 11 0 0 1 14.08 0"/><path d="M1.42 9a16 16 0 0 1 21.16 0"/><path d="M8.53 16.11a6 6 0 0 1 6.95 0"/><line x1="12" y1="20" x2="12.01" y2="20"/></svg></g>
    <g id="x"><svg viewBox="0 0 24 24"><line x1="18" y1="6" x2="6" y2="18"/><line x1="6" y1="6" x2="18" y2="18"/></svg></g>
    <g id="zap"><svg viewBox="0 0 24 24"><polygon points="13 2 3 14 12 14 11 22 21 10 12 10 13 2"/></svg></g>
    <g id="zoom-in"><svg viewBox="0 0 24 24"><circle cx="11" cy="11" r="8"/><line x1="21" y1="21" x2="16.65" y2="16.65"/><line x1="11" y1="8" x2="11" y2="14"/><line x1="8" y1="11" x2="14" y2="11"/></svg></g>
    <g id="zoom-out"><svg viewBox="0 0 24 24"><circle cx="11" cy="11" r="8"/><line x1="21" y1="21" x2="16.65" y2="16.65"/><line x1="8" y1="11" x2="14" y2="11"/></svg></g>
  </defs>
  <use href="#archive" x="36" y="22" width="24" height="24"/>
  <use href="#arrow-down" x="132" y="22" width="24" height="24"/>
  <use href="#arrow-left" x="228" y="22" width="24" height="24"/>
  <use href="#arrow-right" x="324" y="22" width="24" height="24"/>
  <use href="#arrow-up" x="420" y="22" width="24" height="24"/>
  <use href="#at-sign" x="516" y="22" width="24" height="24"/>
  <use href="#bar-chart" x="612" y="22" width="24" height="24"/>
  <use href="#bell" x="708" y="22" width="24" height="24"/>
  <use href="#bookmark" x="804" y="22" width="24" height="24"/>
  <use href="#box" x="900" y="22" width="24" height="24"/>
  <use href="#briefcase" x="996" y="22" width="24" height="24"/>
  <use href="#calendar" x="1092" y="22" width="24" height="24"/>
  <use href="#camera" x="1188" y="22" width="24" height="24"/>
  <use href="#check" x="1284" y="22" width="24" height="24"/>
  <use href="#check-circle" x="1380" y="22" width="24" height="24"/>
  <use href="#chevron-down" x="1476" y="22" width="24" height="24"/>
  <use href="#chevron-left" x="1572" y="22" width="24" height="24"/>
  <use href="#chevron-right" x="1668" y="22" width="24" height="24"/>
  <use href="#chevron-up" x="1764" y="22" width="24" height="24"/>
  <use href="#circle" x="1860" y="22" width="24" height="24"/>
  <use href="#clipboard" x="1956" y="22" width="24" height="24"/>
  <use href="#clock" x="2052" y="22" width="24" height="24"/>
  <use href="#cloud" x="2148" y="22" width="24" height="24"/>
  <use href="#code" x="2244" y="22" width="24" height="24"/>
  <use href="#copy" x="2340" y="22" width="24" height="24"/>
  <use href="#credit-card" x="36" y="89" width="24" height="24"/>
  <use href="#delete" x="132" y="89" width="24" height="24"/>
  <use href="#download" x="228" y="89" width="24" height="24"/>
  <use href="#edit" x="324" y="89" width="24" height="24"/>
  <use href="#external-link" x="420" y="89" width="24" height="24"/>
  <use href="#eye" x="516" y="89" width="24" height="24"/>
  <use href="#file" x="612" y="89" width="24" height="24"/>
  <use href="#file-text" x="708" y="89" width="24" height="24"/>
  <use href="#filter" x="804" y="89" width="24" height="24"/>
  <use href="#flag" x="900" y="89" width="24" height="24"/>
  <use href="#folder" x="996" y="89" width="24" height="24"/>
  <use href="#gift" x="1092" y="89" width="24" height="24"/>
  <use href="#globe" x="1188" y="89" width="24" height="24"/>
  <use href="#grid" x="1284" y="89" width="24" height="24"/>
  <use href="#hash" x="1380" y="89" width="24" height="24"/>
  <use href="#heart" x="1476" y="89" width="24" height="24"/>
  <use href="#help-circle" x="1572" y="89" width="24" height="24"/>
  <use href="#home" x="1668" y="89" width="24" height="24"/>
  <use href="#image" x="1764" y="89" width="24" height="24"/>
  <use href="#info" x="1860" y="89" width="24" height="24"/>
  <use href="#key" x="1956" y="89" width="24" height="24"/>
  <use href="#layers" x="2052" y="89" width="24" height="24"/>
  <use href="#layout" x="2148" y="89" width="24" height="24"/>
  <use href="#link" x="2244" y="89" width="24" height="24"/>
  <use href="#list" x="2340" y="89" width="24" height="24"/>
  <use href="#lock" x="36" y="156" width="24" height="24"/>
  <use href="#mail" x="132" y="156" width="24" height="24"/>
  <use href="#map-pin" x="228" y="156" width="24" height="24"/>
  <use href="#maximize" x="324" y="156" width="24" height="24"/>
  <use href="#menu" x="420" y="156" width="24" height="24"/>
  <use href="#mic" x="516" y="156" width="24" height="24"/>
  <use href="#minimize" x="612" y="156" width="24" height="24"/>
  <use href="#minus" x="708" y="156" width="24" height="24"/>
  <use href="#monitor" x="804" y="156" width="24" height="24"/>
  <use href="#moon" x="900" y="156" width="24" height="24"/>
  <use href="#more-horizontal" x="996" y="156" width="24" height="24"/>
  <use href="#more-vertical" x="1092" y="156" width="24" height="24"/>
  <use href="#move" x="1188" y="156" width="24" height="24"/>
  <use href="#music" x="1284" y="156" width="24" height="24"/>
  <use href="#package" x="1380" y="156" width="24" height="24"/>
  <use href="#paperclip" x="1476" y="156" width="24" height="24"/>
  <use href="#pause" x="1572" y="156" width="24" height="24"/>
  <use href="#phone" x="1668" y="156" width="24" height="24"/>
  <use href="#play" x="1764" y="156" width="24" height="24"/>
  <use href="#plus" x="1860" y="156" width="24" height="24"/>
  <use href="#power" x="1956" y="156" width="24" height="24"/>
  <use href="#search" x="2052" y="156" width="24" height="24"/>
  <use href="#send" x="2148" y="156" width="24" height="24"/>
  <use href="#server" x="2244" y="156" width="24" height="24"/>
  <use href="#settings" x="2340" y="156" width="24" height="24"/>
  <use href="#share" x="36" y="223" width="24" height="24"/>
  <use href="#shield" x="132" y="223" width="24" height="24"/>
  <use href="#shopping-cart" x="228" y="223" width="24" height="24"/>
  <use href="#sidebar" x="324" y="223" width="24" height="24"/>
  <use href="#sliders" x="420" y="223" width="24" height="24"/>
  <use href="#smile" x="516" y="223" width="24" height="24"/>
  <use href="#speaker" x="612" y="223" width="24" height="24"/>
  <use href="#star" x="708" y="223" width="24" height="24"/>
  <use href="#sun" x="804" y="223" width="24" height="24"/>
  <use href="#table" x="900" y="223" width="24" height="24"/>
  <use href="#tag" x="996" y="223" width="24" height="24"/>
  <use href="#terminal" x="1092" y="223" width="24" height="24"/>
  <use href="#trash" x="1188" y="223" width="24" height="24"/>
  <use href="#trending-up" x="1284" y="223" width="24" height="24"/>
  <use href="#unlock" x="1380" y="223" width="24" height="24"/>
  <use href="#upload" x="1476" y="223" width="24" height="24"/>
  <use href="#user" x="1572" y="223" width="24" height="24"/>
  <use href="#users" x="1668" y="223" width="24" height="24"/>
  <use href="#video" x="1764" y="223" width="24" height="24"/>
  <use href="#volume" x="1860" y="223" width="24" height="24"/>
  <use href="#wifi" x="1956" y="223" width="24" height="24"/>
  <use href="#x" x="2052" y="223" width="24" height="24"/>
  <use href="#zap" x="2148" y="223" width="24" height="24"/>
  <use href="#zoom-in" x="2244" y="223" width="24" height="24"/>
  <use href="#zoom-out" x="2340" y="223" width="24" height="24"/>
</svg>